<svg width="68" height="68" viewBox="0 0 68 68" fill="none" xmlns="http://www.w3.org/2000/svg">
<path d="M34.239 14.1163V4" stroke="#5A5959" stroke-width="2.52908" stroke-linecap="round" stroke-linejoin="round"/>
<path opacity="0.5" d="M18.4322 31.8199L13.0579 41.3039L21.2775 44.7814C21.2775 44.7814 19.6968 54.5816 23.8065 57.743C27.9163 60.9043 14.0064 54.8977 14.0064 54.8977L13.0579 41.3039L8.31592 39.7233L13.6902 29.6069L18.4322 31.8199Z" fill="#ADACAC"/>
<path d="M23.4906 17.2776L18.7485 8.42578" stroke="#5A5959" stroke-width="2.52908" stroke-linecap="round" stroke-linejoin="round"/>
<path d="M44.9878 17.2773L49.7298 8.7417" stroke="#5A5959" stroke-width="2.52908" stroke-linecap="round" stroke-linejoin="round"/>
<path d="M54.788 42.252V54.8974M54.788 54.8974L34.2392 62.1685M54.788 54.8974V29.9227M34.2392 62.1685L14.0066 54.8974L13.6904 41.9359V29.9227M34.2392 62.1685V36.8777M13.6904 29.9227L34.2392 36.8777M13.6904 29.9227L34.2392 22.9678L54.788 29.9227M34.2392 36.8777L54.788 29.9227" stroke="#5A5959" stroke-width="2.52908" stroke-linecap="round" stroke-linejoin="round"/>
<path d="M8 39.723L13.7598 29.9229L34.2392 36.8778L54.7186 29.9229L60.4784 39.723L40.959 46.9941L34.2392 36.8778L28.1594 46.9941L8 39.723Z" fill="white"/>
<path d="M34.2392 36.8778L28.1594 46.9941L8 39.723L13.7598 29.9229L34.2392 36.8778ZM34.2392 36.8778L54.7186 29.9229L60.4784 39.723L40.959 46.9941L34.2392 36.8778Z" stroke="#5A5959" stroke-width="2.52908" stroke-linecap="round" stroke-linejoin="round"/>
</svg>
